# xmcd CD database file
#
# Track frame offsets:
#	195
#	26525
#	52725
#	84998
#	106061
#	132947
#	156145
#	185836
#	224994
#	248319
#	278074
#
# Disc length: 4021 seconds
#
# Revision: 0
# Processed by: cddbd v1.5.1PL0 Copyright (c) Steve Scherf et al.
# Submitted via: CDex 1.51
#
DISCID=8e0fb30b
DTITLE=John Marshall Quintet - Theme Of No Repeat
DYEAR=2000
DGENRE=Jazz
TTITLE0=With A Song In My Heart
TTITLE1=Doggie Day
TTITLE2=Ballad For Very Sad And Very Tired Lotuseater
TTITLE3=Theme Of No Repeat
TTITLE4=Una Mas
TTITLE5=That's Earl Brother
TTITLE6=Philly J.J.
TTITLE7=The Scene Is Clean
TTITLE8=So In Love
TTITLE9=I Can Dream, Can't I ?
TTITLE10=Sweet And Lovely
EXTD=YEAR: 2000
EXTT0=
EXTT1=
EXTT2=
EXTT3=
EXTT4=
EXTT5=
EXTT6=
EXTT7=
EXTT8=
EXTT9=
EXTT10=
PLAYORDER=
